<?xml version="1.0" encoding="UTF-8"?>
<svg id="Capa_2" data-name="Capa 2" xmlns="http://www.w3.org/2000/svg" viewBox="0 0 433 433">
  <path d="M310.62,52.5H122.33c-4.09,0-7.39,1.6-8.78,5.59-.7,2.1-.5,4.59-.5,6.89-.2,101.5.2,202.9,0,304.4,0,8.28,2.1,11.08,10.38,11.08,21.16.1,42.22,0,63.38,0,5.99,0,9.38-3.49,9.48-9.38.4-31.24-.2-62.48,0-93.82v-6.49h6.2c28.02,0,56.04.2,84.05,0,7.7,0,11.41-3.7,11.41-11.59v-59.85c-.1-5.1-3.7-8.99-8.21-9.29h-92.46v-53.82h114.43c5.15-.1,8.22-2.97,8.22-7.83.1-22.19.1-44.49,0-66.78,0-5.75-3.57-9.02-9.31-9.12h0ZM233.66,222.93c2.3-5.21,7.52-8.9,13.64-8.87,7.75.04,14.32,6.28,14.74,14.01.47,8.55-6.38,15.69-14.83,15.69-6.08,0-11.26-3.69-13.55-8.87h-74.25v87.61c5.21,2.3,8.9,7.52,8.87,13.64-.04,7.75-6.28,14.32-14.01,14.74-8.55.47-15.69-6.38-15.69-14.83,0-6.08,3.69-11.26,8.87-13.55v-89.2c0-5.7,4.66-10.37,10.37-10.37h75.85Z" style="fill: #112546; stroke-width: 0px;"/>
</svg>